<svg version="1.2" xmlns="http://www.w3.org/2000/svg" viewBox="0 0 512 512" width="512" height="512">
	<title>motogp</title>
	<style>
		.s0 { opacity: 1;fill: #000000 } 
		.s1 { opacity: .85;fill: #000000 } 
		.s2 { opacity: .39;fill: #000000 } 
		.s3 { opacity: .14;fill: #000000 } 
		.s4 { opacity: .57;fill: #000000 } 
	</style>
	<g id="Background">
		<path id="Path 0" fill-rule="evenodd" class="s0" d="m370.4 114.4c4.5 0.3 12.6 1.7 18.1 3 5.5 1.4 13.4 3.7 17.5 5.2 4.1 1.4 11.3 4.6 16 6.9 4.7 2.3 12.3 7.1 17 10.6 4.6 3.5 10.8 9.3 13.8 12.9 2.9 3.6 6.6 8.7 8.2 11.5 1.6 2.7 4 7.9 5.3 11.5 1.4 3.6 3 9.4 3.7 13 0.6 3.6 1.1 11.4 1.1 17.5 0 6.1-0.7 14.8-1.6 19.5-0.9 5-2.2 9.2-3.3 10.3-1.5 1.6-3 1.7-17.2 1.1-11.5-0.6-15.7-0.5-16.2 0.4q-0.8 1.2 2.5 1.7c1.7 0.3 6.1 1.8 9.7 3.2 3.6 1.4 10.1 4.9 14.5 7.8 4.4 2.9 10.9 8.3 14.4 12.1 3.4 3.8 8.2 10 10.4 13.9 2.3 3.9 5.4 10.6 6.9 15 1.5 4.4 3.2 12.1 3.7 17 0.7 6.1 0.7 11.9 0 18-0.5 4.9-2.1 12.4-3.5 16.5-1.4 4.1-3.9 10-5.6 13-1.7 3-5 8-7.3 11-2.3 3-6.3 7.4-8.9 9.7-2.5 2.4-7.6 6.3-11.3 8.7-3.8 2.4-9.9 5.6-13.8 7.1-3.9 1.5-9.9 3.3-13.5 4.1-3.6 0.8-11 1.4-16.5 1.4-5.5 0-13.1-0.7-17-1.5-3.9-0.9-10.4-3-14.5-4.8-4.1-1.8-10.2-5-13.5-7.2-3.2-2.2-8.6-6.7-12-10-3.3-3.3-8-9.1-15-19.6l-174 0.1-2.5 4.7c-1.4 2.6-5.9 8.2-10 12.6-4.1 4.4-10.4 9.9-14 12.2-3.6 2.4-9.2 5.6-12.5 7-3.3 1.5-9.6 3.5-14 4.6-5.2 1.2-11.6 1.9-18.5 1.9-6.9 0-13.3-0.7-18.5-1.9-4.4-1.1-10.7-3.1-14-4.6-3.3-1.4-8.9-4.6-12.5-7-3.6-2.3-9.9-7.8-14-12.2-5.8-6.1-8.7-10.2-12.7-18.3-2.9-5.8-6-13.6-7-17.5-1.1-4.6-1.7-11.1-1.7-19 0-8.4 0.5-14.1 1.8-19 1-3.9 3.3-10.1 5-14 1.8-3.9 5-9.7 7.3-13 2.2-3.3 6.9-8.7 10.4-12.1 3.5-3.4 9.1-7.8 12.4-9.9 3.3-2.1 8.5-4.9 11.5-6.3 3-1.3 9.1-3.2 13.5-4.3 5.3-1.2 11.6-1.9 18.5-1.9 5.8 0 13.4 0.7 17 1.5 3.6 0.8 6.6 1.3 6.8 1 0.1-0.3-4-3-9-6.2-5.1-3.1-15.8-8.9-23.8-12.8-8-4-18.3-8.7-23-10.5-4.7-1.8-9.5-4.3-10.7-5.6-2.2-2.3-2.3-3.2-2.3-19.2-0.1-15.3 0.1-16.9 2-19.5 1.4-1.9 2.9-2.7 5-2.7 1.7 0 21.3 3.8 43.8 8.5 22.4 4.6 51.5 10.7 64.7 13.5 13.2 2.8 25.6 5.5 27.5 6 1.9 0.5 5.8 1 8.5 1 2.8 0 8.6-0.9 13-2 4.4-1.1 13-4.5 19-7.5 6.1-3 15.4-8.6 30.5-19.5l97.5-0.5-0.1-12c-0.1-10.1-0.5-13.2-2.7-20-1.5-4.4-2.7-8.9-2.7-10.1-0.1-1.1 0.9-3.1 2.1-4.3 2.1-2.2 2.8-2.3 10.3-1.7zm8.5 21.7c0.3 2.4 0.5 11.6 0.4 20.4-0.2 15-0.3 16.2-2.6 19.5-1.3 1.9-4.1 6.2-6.2 9.5-2.1 3.3-6.4 8.4-9.4 11.3-3.1 2.9-8.1 6.6-11.1 8.2-3 1.6-6.7 2.9-8.2 3-1.7 0-3.8-1-5.3-2.5-1.4-1.4-2.5-3.7-2.5-5.3 0-1.5 0.6-3.6 1.3-4.7 0.8-1.1 3.8-3.4 6.8-5.2 3-1.7 7.2-5 9.4-7.2l4-4.1h-84.5c-14.3 9.8-21 14.1-24 15.8-3 1.7-8.9 4.5-13 6.2-4.1 1.7-11.1 4-15.5 5.1-4.4 1-11.1 1.9-15 1.9-3.8 0-8.6-0.5-10.5-1-1.9-0.6-30.4-6.7-63.2-13.5-32.9-6.9-60.2-12.5-60.8-12.5-0.6 0-0.9 2.7-0.7 6.5l0.2 6.6c15.5 6.6 26.1 11.7 33.5 15.4 7.4 3.8 18 9.9 23.5 13.6 5.5 3.7 12.8 9.6 16.2 13 3.3 3.5 6.8 8.1 7.7 10.1 1.3 3 1.6 7.6 1.6 22.3v18.5h53.5c2.1-6.6 4.1-10.7 5.8-13.4 1.8-2.7 4.8-6.1 6.7-7.6 1.9-1.5 5.5-3.8 8-5.1 3.9-2.1 5.9-2.4 15-2.4 9.1 0 11.1 0.3 15 2.4 2.5 1.3 6.1 3.6 8 5.1 1.9 1.5 4.9 4.9 6.7 7.6 1.7 2.7 3.8 7.4 4.7 10.4 0.9 3 1.6 7.4 1.6 9.7 0 2.4-0.8 6.9-1.8 10-1 3.2-3.4 8-5.3 10.8-2 2.7-5.8 6.5-8.5 8.3-2.7 1.8-7.4 4-10.4 4.9-3.6 1-7.9 1.4-12.5 1.1-4.5-0.3-8.9-1.3-12.5-3-3-1.3-7.5-4.5-10-6.9-2.5-2.5-5.6-6.8-7-9.7l-2.5-5.2c-108.7 0-113.8 0.1-117.2 1.7-2 1-4.7 3-6 4.5-1.2 1.6-2.7 4.6-3.3 6.8q-1 4 0 8.2c0.6 2.5 2.5 5.9 4.5 8 2 2.2 5.1 4.2 7.3 4.8 2.3 0.6 47.4 1 124 1 119.5 0 120.2 0 120.2-2 0-1.1 1.2-8 2.6-15.3 1.4-7.2 4.1-17.7 5.9-23.2 1.8-5.5 4.8-13.4 6.8-17.5 1.9-4.1 5.9-11.1 8.7-15.5 2.9-4.4 9.3-12 14.4-17 6.1-5.9 11.9-10.5 17.1-13.5 4.4-2.5 11.8-5.9 16.5-7.7 4.7-1.7 12.6-3.9 17.5-4.7 5-0.9 13.6-1.6 19.3-1.6 8.2 0 10.3-0.3 10.7-1.5 0.3-0.8 0.5-3.5 0.5-6v-4.5c-35.9 0-36 0-38.5-2.5q-2.5-2.5-2.5-5.8c0-1.7 0.6-3.9 1.3-4.8 0.7-0.9 2.2-2.1 3.5-2.7 1.4-0.8 8.1-1.2 18.7-1.2h16.5c-1-5-2.1-8.8-3.1-11.5-1-2.8-3.3-7.3-5-10-1.8-2.8-5.3-7.2-7.8-9.9-2.5-2.7-7.3-6.8-10.6-9.1-3.3-2.4-9.6-6.1-14-8.3-4.4-2.2-12.4-5.4-17.7-7.1-5.4-1.7-11.5-3.4-13.7-3.7l-3.8-0.7zm-310.9 123.6c-5.7 2.8-9.6 5.8-16.1 12.3-6.6 6.5-9.4 10.3-12.2 16-2 4.1-4.4 10.2-5.2 13.5-1 3.5-1.6 10.2-1.6 16 0 5.9 0.6 12.5 1.6 16 0.8 3.3 3.2 9.4 5.2 13.5 2.8 5.8 5.5 9.5 12.2 16 6.4 6.4 10.5 9.5 16.1 12.3 4.1 2 10.4 4.3 14 5.2 3.6 0.8 10.5 1.5 15.5 1.5 4.9 0 11.7-0.7 15-1.5 3.3-0.8 9.7-3.3 14.2-5.5 6.4-3.1 10.1-5.7 16-11.7l7.8-7.8-65-1c-8.4-4.6-12.8-8.2-15.2-11-2.4-2.7-5.3-7.5-6.5-10.5-1.5-4.2-1.9-7.3-1.6-13.5 0.2-5.6 1-9.3 2.5-12.5 1.2-2.5 3.9-6.4 6-8.8 2.3-2.7 6.3-5.6 10.3-7.5l6.4-3.2 46.6-0.5v-23c-7.4-4.2-12.4-6.5-16-7.9-5.3-1.9-8.8-2.4-18.5-2.7-8.4-0.2-13.8 0.1-18 1.2-3.3 0.8-9.4 3.1-13.5 5.1zm332-4.7c0 0.6 1.9 5.9 4.2 11.9l4.3 11c14.4 0.6 17.3 1.3 22.7 3.9 4 1.9 8.7 5.2 11.4 8 2.5 2.6 5.7 7 7 9.7 1.3 2.8 3 8 3.7 11.8 0.9 5.3 0.9 7.9-0.1 12.5-0.7 3.1-2.4 8.1-3.7 11-1.4 2.9-4.6 7.4-7.3 10-2.6 2.6-7.4 6.1-10.7 7.7-5.6 2.8-6.8 3-17 3-10.2 0-11.5-0.2-17-2.9-3.3-1.6-8.1-5.1-10.8-7.8-2.6-2.6-6.1-7.6-7.7-11-2.1-4.3-3.2-8.5-3.6-13.3-0.4-4.9-0.2-8.8 1-13 0.9-3.3 3.1-8.4 4.8-11.3 1.8-3 5.1-6.9 7.3-8.8l4-3.4c-6.1-16.6-8-21.7-8.2-22-0.2-0.3-1.5 0.6-2.9 2-1.4 1.4-4.5 5.2-6.9 8.5-2.3 3.3-5.8 9.2-7.8 13-1.9 3.9-4.9 11.1-6.6 16-1.8 5-4.3 14.5-5.7 21.3l-2.4 12.2c4.3 10.5 7.4 16.2 9.5 19.4 2.2 3.3 6.7 8.4 10 11.4 3.3 2.9 9.6 7.1 14 9.3 4.4 2.1 10.7 4.6 14 5.4 3.3 0.8 10 1.5 15 1.5 4.9 0 11.9-0.7 15.5-1.5 3.6-0.9 9.9-3.2 14-5.2 5.8-2.8 9.4-5.5 16.1-12.2 6.5-6.5 9.5-10.4 12.2-16.1 2-4.1 4.4-10.4 5.3-14 0.9-3.6 1.7-10.5 1.7-15.5 0-5-0.8-11.8-1.7-15.5-0.9-3.6-3.3-9.9-5.3-14-2.8-5.8-5.6-9.4-12.2-16-6.4-6.4-10.5-9.5-16.1-12.2-4.1-2-10.4-4.4-14-5.2-3.7-0.9-10.5-1.5-16-1.4-5.2 0-10.5 0.3-11.8 0.5-1.2 0.2-2.2 0.8-2.2 1.3zm-171.9 23.9c-1.9 1.4-4.3 4.4-5.3 6.6-1 2.2-1.8 5.9-1.8 8.3 0 2.3 0.8 5.9 1.9 8 1 2 3.2 5 5 6.5 1.7 1.5 4.8 3.2 6.8 3.7 2.1 0.6 4.9 1 6.3 1 1.4 0 4.3-0.8 6.5-1.8 2.2-1 5.5-3.5 7.2-5.5 1.9-2.1 3.6-5.3 3.9-7.4 0.4-2.1 0.4-5.8 0.1-8.3-0.4-2.9-1.7-5.7-3.5-8-1.6-1.9-4.2-4.2-5.8-5.1-1.6-0.9-4.7-1.9-6.9-2.2-2.2-0.3-5.6-0.1-7.5 0.5-1.9 0.5-5.1 2.2-6.9 3.7zm175.4 18.3c-1.7 0.9-4.2 2.9-5.7 4.5-1.5 1.5-3.4 4.5-4.3 6.6-0.8 2-1.5 6.1-1.5 9 0 2.9 0.8 7 1.9 9.2 1 2.2 3.4 5.5 5.2 7.2 1.9 1.8 5.4 3.9 7.9 4.8 2.5 0.9 6.1 1.5 8 1.5 1.9 0 5.7-1 8.5-2.3 2.7-1.3 6.3-3.9 8-5.9 1.6-1.9 3.6-5.3 4.2-7.4 0.7-2.1 1.3-5.7 1.3-7.9 0-2.4-1.1-6.1-2.7-9.4-1.8-3.4-4.3-6.6-6.8-8.3-2.2-1.6-5.6-3.1-7.5-3.4-1.9-0.3-4.2-0.7-5-0.8-0.8-0.2-3.1 0-5 0.4-1.9 0.3-4.9 1.4-6.5 2.2z"/>
		<path id="Path 1" class="s1" d="m363 160.8c0 0.9-10.3 1.3-47.8 1.4l-47.7 0.3c77.8 0.4 95.3 0.2 95.9-0.5 0.6-0.5 0.7-1.3 0.3-1.7-0.4-0.5-0.7-0.2-0.7 0.4z"/>
		<path id="Path 2" class="s2" d="m51.4 185c0 8.5 0.2 11.9 0.3 7.5 0.2-4.4 0.2-11.4 0-15.5-0.1-4.1-0.3-0.5-0.3 8z"/>
		<path id="Path 3" class="s1" d="m134.4 275.5c0 6.6 0.1 9.1 0.3 5.5 0.2-3.6 0.2-9 0-12-0.2-3-0.3-0.1-0.3 6.5z"/>
		<path id="Path 4" class="s3" d="m292.5 178.7c11.6 0.2 30.7 0.2 42.5 0 11.8-0.1 2.4-0.2-21-0.2-23.4 0-33.1 0.1-21.5 0.2zm-142.1 89.3c0 10.7 0.2 15.2 0.3 10 0.2-5.2 0.2-14 0-19.5-0.1-5.5-0.3-1.2-0.3 9.5z"/>
		<path id="Path 5" class="s2" d="m437.5 192l-17 0.6c27.2 0.3 33.7 0 34-0.6 0.2-0.6 0.3-0.9 0.2-0.8-0.1 0.1-7.8 0.5-17.2 0.8zm-316 111.7c15.4 0.2 40.8 0.2 56.5 0 15.7-0.1 3.1-0.2-28-0.2-31.1 0-43.9 0.1-28.5 0.2z"/>
		<path id="Path 6" class="s4" d="m67.3 187.5c0 3.8 0.2 5.2 0.4 3 0.2-2.2 0.2-5.3 0-7-0.2-1.7-0.4 0.2-0.4 4zm361.7 21.2c4.7 0.2 12.8 0.2 18 0 5.2-0.1 1.4-0.3-8.5-0.3-9.9 0-14.2 0.2-9.5 0.3zm-325.5 79c5.5 0.2 14.7 0.2 20.5 0 5.8-0.1 1.3-0.3-10-0.3-11.3 0-16 0.2-10.5 0.3zm60.5 0c8 0.2 20.6 0.2 28 0 7.4-0.1 0.9-0.3-14.5-0.3-15.4 0-21.5 0.2-13.5 0.3z"/>
	</g>
</svg>